<svg xmlns="http://www.w3.org/2000/svg" xmlns:xlink="http://www.w3.org/1999/xlink" viewBox="0 0 263.82 90.53"><defs><style>.cls-1,.cls-3{fill:none;}.cls-2{clip-path:url(#clip-path);}.cls-3{stroke:#fff;stroke-miterlimit:10;}.cls-4,.cls-5{fill:#fff;}.cls-5{font-size:46.21px;font-family:Montserrat-SemiBold, Montserrat;font-weight:600;}.cls-6{letter-spacing:-0.03em;}</style><clipPath id="clip-path" transform="translate(0.5 0.5)"><circle class="cls-1" cx="44.77" cy="44.77" r="44.77"/></clipPath></defs><g id="Camada_2" data-name="Camada 2"><g id="Camada_1-2" data-name="Camada 1"><g id="Camada_2-2" data-name="Camada 2"><g id="Camada_6" data-name="Camada 6"><g class="cls-2"><circle class="cls-3" cx="45.27" cy="45.27" r="44.77"/></g><polygon class="cls-4" points="50.35 20.78 50.35 20.79 45.56 30.67 38.04 46.25 33.81 54.99 23.5 54.99 27.91 45.87 30.31 40.92 33.04 35.27 34.58 32.1 40.41 20.02 45.2 10.13 50.35 20.78"/><polygon class="cls-4" points="58.8 38.26 54.02 48.15 50.71 54.99 41.98 54.99 44.16 50.47 49.65 39.12 54.43 29.23 58.8 38.26"/><polygon class="cls-4" points="75.12 71.74 65.55 71.74 60.29 60.87 57.66 55.43 54.8 49.32 59.58 39.43 61.49 43.56 61.96 44.53 67.23 55.43 69.86 60.87 75.12 71.74"/><polygon class="cls-4" points="48.08 60.43 42.62 71.72 33.89 71.72 39.35 60.43 48.08 60.43"/><polygon class="cls-4" points="31.18 60.43 25.72 71.72 15.41 71.72 20.87 60.43 31.18 60.43"/></g></g><text class="cls-5" transform="translate(98.7 47.84) scale(0.77 1)"><tspan class="cls-6">A</tspan><tspan x="32.99" y="0">THLETE</tspan></text><path class="cls-4" d="M98,81.47l11.1-27.65h1.75L122,81.47h-1.9L109.6,55.08h.76L99.92,81.47Zm4.07-7.78.58-1.7h14.44l.59,1.7Z" transform="translate(0.5 0.5)"/><path class="cls-4" d="M126.34,81.47V53.82H135a11.28,11.28,0,0,1,5.2,1.1,7.86,7.86,0,0,1,3.35,3.18,11.31,11.31,0,0,1,0,10,7.84,7.84,0,0,1-3.35,3.2,11.28,11.28,0,0,1-5.2,1.1h-7.68l.79-.94v10Zm1.76-9.88-.79-1H135q3.9,0,5.91-2a7.33,7.33,0,0,0,2-5.51,7.38,7.38,0,0,0-2-5.55q-2-2-5.91-2h-7.68l.79-1Z" transform="translate(0.5 0.5)"/><path class="cls-4" d="M150.64,81.47V53.82h8.64a11.35,11.35,0,0,1,5.21,1.1,7.89,7.89,0,0,1,3.34,3.18,11.31,11.31,0,0,1,0,10,7.88,7.88,0,0,1-3.34,3.2,11.35,11.35,0,0,1-5.21,1.1H151.6l.79-.94v10Zm1.75-9.88-.79-1h7.68q3.9,0,5.91-2a7.29,7.29,0,0,0,2-5.51,7.34,7.34,0,0,0-2-5.55q-2-2-5.91-2H151.6l.79-1Z" transform="translate(0.5 0.5)"/><path class="cls-4" d="M169.69,81.47l11.09-27.65h1.76l11.1,27.65h-1.9L181.27,55.08H182L171.58,81.47Zm4.07-7.78.58-1.7h14.44l.58,1.7Z" transform="translate(0.5 0.5)"/><path class="cls-4" d="M198,81.47V53.82h8.65a11.28,11.28,0,0,1,5.2,1.1,7.91,7.91,0,0,1,3.35,3.18,10.1,10.1,0,0,1,1.17,5,9.94,9.94,0,0,1-1.17,5,8,8,0,0,1-3.35,3.2,11.15,11.15,0,0,1-5.2,1.12H199l.79-.94v10Zm1.76-9.88-.79-.94h7.68a8.09,8.09,0,0,0,5.91-2,7.41,7.41,0,0,0,2-5.53,7.38,7.38,0,0,0-2-5.55q-2-2-5.91-2H199l.79-1Zm15,9.88-6.27-10h2l6.27,10Z" transform="translate(0.5 0.5)"/><path class="cls-4" d="M224.58,79.66h14.88v1.81H222.82V53.82H239v1.81H224.58Zm-.21-13.12h13.06v1.78H224.37Z" transform="translate(0.5 0.5)"/><path class="cls-4" d="M245.87,81.47V53.82h1.76V79.66h13.88v1.81Z" transform="translate(0.5 0.5)"/></g></g></svg>